{"asset":{"version":"2.0","generator":"Blockbench 4.12.4 glTF exporter"},"scenes":[{"nodes":[7],"name":"blockbench_export"}],"scene":0,"nodes":[{"name":"AsteroidBody","mesh":0},{"rotation":[0.1521233861899167,0,0,0.9883615104677607],"translation":[0,0.046875,0.046875],"name":"CarbonFiberFrag1","mesh":1},{"rotation":[0.1901957570483027,-0.07779001631046623,-0.8279153041527308,0.5218529836198427],"translation":[-0.159375,0.078125,-0.046875],"name":"CarbonFiberFrag2","mesh":2},{"rotation":[-0.04078763153316295,0.575297369342062,0.8098158394514091,0.10755283406599542],"translation":[0.04375,0.0625,-0.159375],"name":"CarbonFiberFrag3","mesh":3},{"rotation":[0.7070315615572549,-0.3878907974082992,0.2844132998165555,0.5184169896283508],"translation":[-0.046875,-0.03125,0.03125],"name":"CarbonFiberFrag4","mesh":4},{"rotation":[0.30022092077985435,-0.27725366015309866,-0.6567923825194928,0.6337362013662899],"translation":[0.028125,0.015625,0.046875],"name":"CarbonFiberFrag5","mesh":5},{"name":"CarbonFiberFrags","children":[1,2,3,4,5]},{"children":[0,6]}],"bufferViews":[{"buffer":0,"byteOffset":0,"byteLength":3168,"target":34962,"byteStride":12},{"buffer":0,"byteOffset":3168,"byteLength":3168,"target":34962,"byteStride":12},{"buffer":0,"byteOffset":6336,"byteLength":2112,"target":34962,"byteStride":8},{"buffer":0,"byteOffset":8448,"byteLength":720,"target":34963},{"buffer":0,"byteOffset":9168,"byteLength":600,"target":34962,"byteStride":12},{"buffer":0,"byteOffset":9768,"byteLength":600,"target":34962,"byteStride":12},{"buffer":0,"byteOffset":10368,"byteLength":400,"target":34962,"byteStride":8},{"buffer":0,"byteOffset":10768,"byteLength":120,"target":34963},{"buffer":0,"byteOffset":10888,"byteLength":600,"target":34962,"byteStride":12},{"buffer":0,"byteOffset":11488,"byteLength":600,"target":34962,"byteStride":12},{"buffer":0,"byteOffset":12088,"byteLength":400,"target":34962,"byteStride":8},{"buffer":0,"byteOffset":12488,"byteLength":120,"target":34963},{"buffer":0,"byteOffset":12608,"byteLength":600,"target":34962,"byteStride":12},{"buffer":0,"byteOffset":13208,"byteLength":600,"target":34962,"byteStride":12},{"buffer":0,"byteOffset":13808,"byteLength":400,"target":34962,"byteStride":8},{"buffer":0,"byteOffset":14208,"byteLength":120,"target":34963},{"buffer":0,"byteOffset":14328,"byteLength":600,"target":34962,"byteStride":12},{"buffer":0,"byteOffset":14928,"byteLength":600,"target":34962,"byteStride":12},{"buffer":0,"byteOffset":15528,"byteLength":400,"target":34962,"byteStride":8},{"buffer":0,"byteOffset":15928,"byteLength":120,"target":34963},{"buffer":0,"byteOffset":16048,"byteLength":600,"target":34962,"byteStride":12},{"buffer":0,"byteOffset":16648,"byteLength":600,"target":34962,"byteStride":12},{"buffer":0,"byteOffset":17248,"byteLength":400,"target":34962,"byteStride":8},{"buffer":0,"byteOffset":17648,"byteLength":120,"target":34963}],"buffers":[{"byteLength":17768,"uri":"data:application/octet-stream;base64,"}],"accessors":[{"bufferView":0,"componentType":5126,"count":264,"max":[0.125,0.125,0.125],"min":[-0.125,-0.125,-0.125],"type":"VEC3"},{"bufferView":1,"componentType":5126,"count":264,"max":[0.9659256339073181,0.9659256339073181,0.9659256339073181],"min":[-0.9659256339073181,-0.9659256339073181,-0.9659256339073181],"type":"VEC3"},{"bufferView":2,"componentType":5126,"count":264,"max":[0.7892137765884399,0.6622633934020996],"min":[0.0022437500301748514,0],"type":"VEC2"},{"bufferView":3,"componentType":5123,"count":360,"max":[263],"min":[0],"type":"SCALAR"},{"bufferView":4,"componentType":5126,"count":50,"max":[0.0234375,0.0703125,0.008683281019330025],"min":[-0.0234375,0.0546875,-0.038191717118024826],"type":"VEC3"},{"bufferView":5,"componentType":5126,"count":50,"max":[0.9554223418235779,1,1],"min":[-0.9554223418235779,-1,-0.7946539521217346],"type":"VEC3"},{"bufferView":6,"componentType":5126,"count":50,"max":[0.5625,0.4375],"min":[0,0],"type":"VEC2"},{"bufferView":7,"componentType":5123,"count":60,"max":[49],"min":[0],"type":"SCALAR"},{"bufferView":8,"componentType":5126,"count":50,"max":[0.0390625,0.0703125,0.024308281019330025],"min":[-0.0390625,0.0546875,-0.053816717118024826],"type":"VEC3"},{"bufferView":9,"componentType":5126,"count":50,"max":[0.9554221034049988,1,1],"min":[-0.9554221034049988,-1,-0.7946544885635376],"type":"VEC3"},{"bufferView":10,"componentType":5126,"count":50,"max":[0.75,0.625],"min":[0,0],"type":"VEC2"},{"bufferView":11,"componentType":5123,"count":60,"max":[49],"min":[0],"type":"SCALAR"},{"bufferView":12,"componentType":5126,"count":50,"max":[0.0625,0.078125,0.039933282881975174],"min":[-0.0625,0.046875,-0.06944172084331512],"type":"VEC3"},{"bufferView":13,"componentType":5126,"count":50,"max":[0.942925214767456,1,1],"min":[-0.942925214767456,-1,-0.8313692212104797],"type":"VEC3"},{"bufferView":14,"componentType":5126,"count":50,"max":[0.875,1],"min":[0,0],"type":"VEC2"},{"bufferView":15,"componentType":5123,"count":60,"max":[49],"min":[0],"type":"SCALAR"},{"bufferView":16,"componentType":5126,"count":50,"max":[0.015625,0.0703125,0.0008707812521606684],"min":[-0.015625,0.0546875,-0.030379218980669975],"type":"VEC3"},{"bufferView":17,"componentType":5126,"count":50,"max":[0.9554218053817749,1,1],"min":[-0.9554218053817749,-1,-0.7946552634239197],"type":"VEC3"},{"bufferView":18,"componentType":5126,"count":50,"max":[0.5625,0.4375],"min":[0,0],"type":"VEC2"},{"bufferView":19,"componentType":5123,"count":60,"max":[49],"min":[0],"type":"SCALAR"},{"bufferView":20,"componentType":5126,"count":50,"max":[0.0390625,0.078125,0.024308281019330025],"min":[-0.0390625,0.046875,-0.053816717118024826],"type":"VEC3"},{"bufferView":21,"componentType":5126,"count":50,"max":[0.9554221034049988,1,1],"min":[-0.9554221034049988,-1,-0.7946544885635376],"type":"VEC3"},{"bufferView":22,"componentType":5126,"count":50,"max":[0.8125,0.6875],"min":[0,0],"type":"VEC2"},{"bufferView":23,"componentType":5123,"count":60,"max":[49],"min":[0],"type":"SCALAR"}],"materials":[{"pbrMetallicRoughness":{"metallicFactor":0,"roughnessFactor":1,"baseColorTexture":{"index":0}},"alphaMode":"MASK","alphaCutoff":0.05,"doubleSided":true},{"pbrMetallicRoughness":{"metallicFactor":0,"roughnessFactor":1,"baseColorTexture":{"index":1}},"alphaMode":"MASK","alphaCutoff":0.05,"doubleSided":true},{"pbrMetallicRoughness":{"metallicFactor":0,"roughnessFactor":1,"baseColorTexture":{"index":2}},"alphaMode":"MASK","alphaCutoff":0.05,"doubleSided":true},{"pbrMetallicRoughness":{"metallicFactor":0,"roughnessFactor":1,"baseColorTexture":{"index":3}},"alphaMode":"MASK","alphaCutoff":0.05,"doubleSided":true},{"pbrMetallicRoughness":{"metallicFactor":0,"roughnessFactor":1,"baseColorTexture":{"index":4}},"alphaMode":"MASK","alphaCutoff":0.05,"doubleSided":true}],"textures":[{"sampler":0,"source":0,"name":"AsteroidBody"},{"sampler":1,"source":1,"name":"CarbonFiberFrag1"},{"sampler":2,"source":2,"name":"CarbonFiberFrag2"},{"sampler":3,"source":3,"name":"CarbonFiberFrag3"},{"sampler":4,"source":4,"name":"CarbonFiberFrag5"}],"samplers":[{"magFilter":9728,"minFilter":9728,"wrapS":33071,"wrapT":33071},{"magFilter":9728,"minFilter":9728,"wrapS":33071,"wrapT":33071},{"magFilter":9728,"minFilter":9728,"wrapS":33071,"wrapT":33071},{"magFilter":9728,"minFilter":9728,"wrapS":33071,"wrapT":33071},{"magFilter":9728,"minFilter":9728,"wrapS":33071,"wrapT":33071}],"images":[{"mimeType":"image/png","uri":"data:image/png;base64,"},{"mimeType":"image/png","uri":"data:image/png;base64,"},{"mimeType":"image/png","uri":"data:image/png;base64,"},{"mimeType":"image/png","uri":"data:image/png;base64,"},{"mimeType":"image/png","uri":"data:image/png;base64,"}],"meshes":[{"primitives":[{"mode":4,"attributes":{"POSITION":0,"NORMAL":1,"TEXCOORD_0":2},"indices":3,"material":0}]},{"primitives":[{"mode":4,"attributes":{"POSITION":4,"NORMAL":5,"TEXCOORD_0":6},"indices":7,"material":1}]},{"primitives":[{"mode":4,"attributes":{"POSITION":8,"NORMAL":9,"TEXCOORD_0":10},"indices":11,"material":2}]},{"primitives":[{"mode":4,"attributes":{"POSITION":12,"NORMAL":13,"TEXCOORD_0":14},"indices":15,"material":3}]},{"primitives":[{"mode":4,"attributes":{"POSITION":16,"NORMAL":17,"TEXCOORD_0":18},"indices":19,"material":1}]},{"primitives":[{"mode":4,"attributes":{"POSITION":20,"NORMAL":21,"TEXCOORD_0":22},"indices":23,"material":4}]}]}