{"asset":{"version":"2.0","generator":"Blockbench 4.12.4 glTF exporter"},"scenes":[{"nodes":[7],"name":"blockbench_export"}],"scene":0,"nodes":[{"name":"AsteroidBody","mesh":0},{"rotation":[0.3007057995042731,0,0,0.9537169507482269],"translation":[0,0.046875,0.03125],"name":"Exotic1","mesh":1},{"rotation":[0.16725189394830503,-0.041602829837944014,-0.8305206036493853,0.5296522778522156],"translation":[-0.159375,0.078125,-0.046875],"name":"Exotic2","mesh":2},{"rotation":[-0.03095250316550844,0.5583023427669422,0.824303846354115,0.08867697274120453],"translation":[0.04375,0.0625,-0.159375],"name":"Exotic3","mesh":3},{"rotation":[0.72897192219076,-0.37511562715617464,0.3010618303035715,0.487083131770134],"translation":[-0.046875,-0.03125,0.03125],"name":"Exotic4","mesh":4},{"rotation":[0.4057072069212486,-0.3870921926549828,-0.5986697436238363,0.5719753794588427],"translation":[0.028125,0.015625,0.046875],"name":"Exotic5","mesh":5},{"name":"GrapheneFrags","children":[1,2,3,4,5]},{"children":[0,6]}],"bufferViews":[{"buffer":0,"byteOffset":0,"byteLength":3168,"target":34962,"byteStride":12},{"buffer":0,"byteOffset":3168,"byteLength":3168,"target":34962,"byteStride":12},{"buffer":0,"byteOffset":6336,"byteLength":2112,"target":34962,"byteStride":8},{"buffer":0,"byteOffset":8448,"byteLength":720,"target":34963},{"buffer":0,"byteOffset":9168,"byteLength":2880,"target":34962,"byteStride":12},{"buffer":0,"byteOffset":12048,"byteLength":2880,"target":34962,"byteStride":12},{"buffer":0,"byteOffset":14928,"byteLength":1920,"target":34962,"byteStride":8},{"buffer":0,"byteOffset":16848,"byteLength":576,"target":34963},{"buffer":0,"byteOffset":17424,"byteLength":2880,"target":34962,"byteStride":12},{"buffer":0,"byteOffset":20304,"byteLength":2880,"target":34962,"byteStride":12},{"buffer":0,"byteOffset":23184,"byteLength":1920,"target":34962,"byteStride":8},{"buffer":0,"byteOffset":25104,"byteLength":576,"target":34963},{"buffer":0,"byteOffset":25680,"byteLength":2880,"target":34962,"byteStride":12},{"buffer":0,"byteOffset":28560,"byteLength":2880,"target":34962,"byteStride":12},{"buffer":0,"byteOffset":31440,"byteLength":1920,"target":34962,"byteStride":8},{"buffer":0,"byteOffset":33360,"byteLength":576,"target":34963},{"buffer":0,"byteOffset":33936,"byteLength":2880,"target":34962,"byteStride":12},{"buffer":0,"byteOffset":36816,"byteLength":2880,"target":34962,"byteStride":12},{"buffer":0,"byteOffset":39696,"byteLength":1920,"target":34962,"byteStride":8},{"buffer":0,"byteOffset":41616,"byteLength":576,"target":34963},{"buffer":0,"byteOffset":42192,"byteLength":2880,"target":34962,"byteStride":12},{"buffer":0,"byteOffset":45072,"byteLength":2880,"target":34962,"byteStride":12},{"buffer":0,"byteOffset":47952,"byteLength":1920,"target":34962,"byteStride":8},{"buffer":0,"byteOffset":49872,"byteLength":576,"target":34963}],"buffers":[{"byteLength":50448,"uri":"data:application/octet-stream;base64,"}],"accessors":[{"bufferView":0,"componentType":5126,"count":264,"max":[0.125,0.125,0.125],"min":[-0.125,-0.125,-0.125],"type":"VEC3"},{"bufferView":1,"componentType":5126,"count":264,"max":[0.9659256339073181,0.9659256339073181,0.9659256339073181],"min":[-0.9659256339073181,-0.9659256339073181,-0.9659256339073181],"type":"VEC3"},{"bufferView":2,"componentType":5126,"count":264,"max":[0.7892137765884399,0.6622633934020996],"min":[0.0022437500301748514,0],"type":"VEC2"},{"bufferView":3,"componentType":5123,"count":360,"max":[263],"min":[0],"type":"SCALAR"},{"bufferView":4,"componentType":5126,"count":240,"max":[0.0234375,0.0703125,0.0234375],"min":[-0.0234375,0.0546875,-0.0234375],"type":"VEC3"},{"bufferView":5,"componentType":5126,"count":240,"max":[1,1,1],"min":[-1,-1,-1],"type":"VEC3"},{"bufferView":6,"componentType":5126,"count":240,"max":[0.5043143630027771,0.5043143630027771],"min":[0,0],"type":"VEC2"},{"bufferView":7,"componentType":5123,"count":288,"max":[239],"min":[0],"type":"SCALAR"},{"bufferView":8,"componentType":5126,"count":240,"max":[0.0390625,0.0703125,0.0390625],"min":[-0.0390625,0.0546875,-0.0390625],"type":"VEC3"},{"bufferView":9,"componentType":5126,"count":240,"max":[1,1,1],"min":[-1,-1,-1],"type":"VEC3"},{"bufferView":10,"componentType":5126,"count":240,"max":[0.5043143630027771,0.5043143630027771],"min":[0,0],"type":"VEC2"},{"bufferView":11,"componentType":5123,"count":288,"max":[239],"min":[0],"type":"SCALAR"},{"bufferView":12,"componentType":5126,"count":240,"max":[0.0625,0.078125,0.0546875],"min":[-0.0625,0.046875,-0.0546875],"type":"VEC3"},{"bufferView":13,"componentType":5126,"count":240,"max":[1,1,1],"min":[-1,-1,-1],"type":"VEC3"},{"bufferView":14,"componentType":5126,"count":240,"max":[0.5043143630027771,0.5043143630027771],"min":[0,0],"type":"VEC2"},{"bufferView":15,"componentType":5123,"count":288,"max":[239],"min":[0],"type":"SCALAR"},{"bufferView":16,"componentType":5126,"count":240,"max":[0.015625,0.0703125,0.015625],"min":[-0.015625,0.0546875,-0.015625],"type":"VEC3"},{"bufferView":17,"componentType":5126,"count":240,"max":[1,1,1],"min":[-1,-1,-1],"type":"VEC3"},{"bufferView":18,"componentType":5126,"count":240,"max":[0.5043143630027771,0.5043143630027771],"min":[0,0],"type":"VEC2"},{"bufferView":19,"componentType":5123,"count":288,"max":[239],"min":[0],"type":"SCALAR"},{"bufferView":20,"componentType":5126,"count":240,"max":[0.0390625,0.078125,0.0390625],"min":[-0.0390625,0.046875,-0.0390625],"type":"VEC3"},{"bufferView":21,"componentType":5126,"count":240,"max":[1,1,1],"min":[-1,-1,-1],"type":"VEC3"},{"bufferView":22,"componentType":5126,"count":240,"max":[0.5043143630027771,0.5043143630027771],"min":[0,0],"type":"VEC2"},{"bufferView":23,"componentType":5123,"count":288,"max":[239],"min":[0],"type":"SCALAR"}],"materials":[{"pbrMetallicRoughness":{"metallicFactor":0,"roughnessFactor":1,"baseColorTexture":{"index":0}},"alphaMode":"MASK","alphaCutoff":0.05,"doubleSided":true},{"pbrMetallicRoughness":{"metallicFactor":0,"roughnessFactor":1,"baseColorTexture":{"index":1}},"alphaMode":"MASK","alphaCutoff":0.05,"doubleSided":true}],"textures":[{"sampler":0,"source":0,"name":"AsteroidBody"},{"sampler":1,"source":1,"name":"ExoticMatter"}],"samplers":[{"magFilter":9728,"minFilter":9728,"wrapS":33071,"wrapT":33071},{"magFilter":9728,"minFilter":9728,"wrapS":33071,"wrapT":33071}],"images":[{"mimeType":"image/png","uri":"data:image/png;base64,"},{"mimeType":"image/png","uri":"data:image/png;base64,"}],"meshes":[{"primitives":[{"mode":4,"attributes":{"POSITION":0,"NORMAL":1,"TEXCOORD_0":2},"indices":3,"material":0}]},{"primitives":[{"mode":4,"attributes":{"POSITION":4,"NORMAL":5,"TEXCOORD_0":6},"indices":7,"material":1}]},{"primitives":[{"mode":4,"attributes":{"POSITION":8,"NORMAL":9,"TEXCOORD_0":10},"indices":11,"material":1}]},{"primitives":[{"mode":4,"attributes":{"POSITION":12,"NORMAL":13,"TEXCOORD_0":14},"indices":15,"material":1}]},{"primitives":[{"mode":4,"attributes":{"POSITION":16,"NORMAL":17,"TEXCOORD_0":18},"indices":19,"material":1}]},{"primitives":[{"mode":4,"attributes":{"POSITION":20,"NORMAL":21,"TEXCOORD_0":22},"indices":23,"material":1}]}]}