{"asset":{"version":"2.0","generator":"Blockbench 4.12.4 glTF exporter"},"scenes":[{"nodes":[20],"name":"blockbench_export"}],"scene":0,"nodes":[{"rotation":[-0.7071067811865475,0,0,0.7071067811865476],"translation":[0,0.015625,-0.0078125],"name":"FrontCone","mesh":0},{"translation":[0,-0.046875,0],"name":"ShipBody","mesh":1},{"rotation":[0.7071067811865475,0,0,0.7071067811865476],"translation":[0.015625,0.0703125,0],"name":"cylinder","mesh":2},{"rotation":[0.7071067811865475,0,0,0.7071067811865476],"translation":[-0.015625,0.0703125,0],"name":"cylinder","mesh":3},{"rotation":[0.7071067811865475,0,0,0.7071067811865476],"translation":[-0.015625,0.0546875,0],"name":"cylinder","mesh":4},{"rotation":[0.7071067811865475,0,0,0.7071067811865476],"translation":[0.015625,0.0546875,0],"name":"cylinder","mesh":5},{"translation":[0,0.078125,0.00390625],"name":"cube","mesh":6},{"rotation":[0.25881904510252074,0,0,0.9659258262890683],"translation":[0,0.078125,0.04296875],"name":"cube","mesh":7},{"rotation":[0.4422886902190013,0,0,0.8968727415326883],"translation":[0,0.078125,0.0625],"name":"cube","mesh":8},{"translation":[0,0.078125,-0.0390625],"name":"cube","mesh":9},{"rotation":[-5.914589856893349e-17,-0.9659258262890683,0.25881904510252074,1.5848095757158825e-17],"translation":[0,0.078125,-0.04296875],"name":"cube","mesh":10},{"translation":[0,-0.046875,0],"name":"Decor","children":[2,3,4,5,6,7,8,9,10]},{"rotation":[0.7071067811865475,0,0,0.7071067811865476],"translation":[-0.0046875,0.01171875,-0.0078125],"name":"cylinder","mesh":11},{"rotation":[0.7071067811865475,0,0,0.7071067811865476],"translation":[-0.0046875,0.01953125,-0.0078125],"name":"cylinder","mesh":12},{"rotation":[0.7071067811865475,0,0,0.7071067811865476],"translation":[0.0046875,0.01171875,-0.0078125],"name":"cylinder","mesh":13},{"rotation":[0.7071067811865475,0,0,0.7071067811865476],"translation":[0.0046875,0.01953125,-0.0078125],"name":"cylinder","mesh":14},{"name":"Thrusters","children":[12,13,14,15]},{"translation":[-0.0046875,-0.05,0],"name":"ShieldGenerator","mesh":15},{"rotation":[0.7071067811865475,0,0,0.7071067811865476],"translation":[0.003125,-0.00390625,-0.0703125],"name":"Scanner","mesh":16},{"translation":[0.0046875,0.01953125,0],"name":"Components","children":[17,18]},{"children":[0,1,11,16,19]}],"bufferViews":[{"buffer":0,"byteOffset":0,"byteLength":192,"target":34962,"byteStride":12},{"buffer":0,"byteOffset":192,"byteLength":192,"target":34962,"byteStride":12},{"buffer":0,"byteOffset":384,"byteLength":128,"target":34962,"byteStride":8},{"buffer":0,"byteOffset":512,"byteLength":36,"target":34963},{"buffer":0,"byteOffset":548,"byteLength":1152,"target":34962,"byteStride":12},{"buffer":0,"byteOffset":1700,"byteLength":1152,"target":34962,"byteStride":12},{"buffer":0,"byteOffset":2852,"byteLength":768,"target":34962,"byteStride":8},{"buffer":0,"byteOffset":3620,"byteLength":264,"target":34963},{"buffer":0,"byteOffset":3884,"byteLength":1440,"target":34962,"byteStride":12},{"buffer":0,"byteOffset":5324,"byteLength":1440,"target":34962,"byteStride":12},{"buffer":0,"byteOffset":6764,"byteLength":960,"target":34962,"byteStride":8},{"buffer":0,"byteOffset":7724,"byteLength":288,"target":34963},{"buffer":0,"byteOffset":8012,"byteLength":1440,"target":34962,"byteStride":12},{"buffer":0,"byteOffset":9452,"byteLength":1440,"target":34962,"byteStride":12},{"buffer":0,"byteOffset":10892,"byteLength":960,"target":34962,"byteStride":8},{"buffer":0,"byteOffset":11852,"byteLength":288,"target":34963},{"buffer":0,"byteOffset":12140,"byteLength":1440,"target":34962,"byteStride":12},{"buffer":0,"byteOffset":13580,"byteLength":1440,"target":34962,"byteStride":12},{"buffer":0,"byteOffset":15020,"byteLength":960,"target":34962,"byteStride":8},{"buffer":0,"byteOffset":15980,"byteLength":288,"target":34963},{"buffer":0,"byteOffset":16268,"byteLength":1440,"target":34962,"byteStride":12},{"buffer":0,"byteOffset":17708,"byteLength":1440,"target":34962,"byteStride":12},{"buffer":0,"byteOffset":19148,"byteLength":960,"target":34962,"byteStride":8},{"buffer":0,"byteOffset":20108,"byteLength":288,"target":34963},{"buffer":0,"byteOffset":20396,"byteLength":288,"target":34962,"byteStride":12},{"buffer":0,"byteOffset":20684,"byteLength":288,"target":34962,"byteStride":12},{"buffer":0,"byteOffset":20972,"byteLength":192,"target":34962,"byteStride":8},{"buffer":0,"byteOffset":21164,"byteLength":72,"target":34963},{"buffer":0,"byteOffset":21236,"byteLength":288,"target":34962,"byteStride":12},{"buffer":0,"byteOffset":21524,"byteLength":288,"target":34962,"byteStride":12},{"buffer":0,"byteOffset":21812,"byteLength":192,"target":34962,"byteStride":8},{"buffer":0,"byteOffset":22004,"byteLength":72,"target":34963},{"buffer":0,"byteOffset":22076,"byteLength":288,"target":34962,"byteStride":12},{"buffer":0,"byteOffset":22364,"byteLength":288,"target":34962,"byteStride":12},{"buffer":0,"byteOffset":22652,"byteLength":192,"target":34962,"byteStride":8},{"buffer":0,"byteOffset":22844,"byteLength":72,"target":34963},{"buffer":0,"byteOffset":22916,"byteLength":288,"target":34962,"byteStride":12},{"buffer":0,"byteOffset":23204,"byteLength":288,"target":34962,"byteStride":12},{"buffer":0,"byteOffset":23492,"byteLength":192,"target":34962,"byteStride":8},{"buffer":0,"byteOffset":23684,"byteLength":72,"target":34963},{"buffer":0,"byteOffset":23756,"byteLength":288,"target":34962,"byteStride":12},{"buffer":0,"byteOffset":24044,"byteLength":288,"target":34962,"byteStride":12},{"buffer":0,"byteOffset":24332,"byteLength":192,"target":34962,"byteStride":8},{"buffer":0,"byteOffset":24524,"byteLength":72,"target":34963},{"buffer":0,"byteOffset":24596,"byteLength":1440,"target":34962,"byteStride":12},{"buffer":0,"byteOffset":26036,"byteLength":1440,"target":34962,"byteStride":12},{"buffer":0,"byteOffset":27476,"byteLength":960,"target":34962,"byteStride":8},{"buffer":0,"byteOffset":28436,"byteLength":288,"target":34963},{"buffer":0,"byteOffset":28724,"byteLength":1440,"target":34962,"byteStride":12},{"buffer":0,"byteOffset":30164,"byteLength":1440,"target":34962,"byteStride":12},{"buffer":0,"byteOffset":31604,"byteLength":960,"target":34962,"byteStride":8},{"buffer":0,"byteOffset":32564,"byteLength":288,"target":34963},{"buffer":0,"byteOffset":32852,"byteLength":1440,"target":34962,"byteStride":12},{"buffer":0,"byteOffset":34292,"byteLength":1440,"target":34962,"byteStride":12},{"buffer":0,"byteOffset":35732,"byteLength":960,"target":34962,"byteStride":8},{"buffer":0,"byteOffset":36692,"byteLength":288,"target":34963},{"buffer":0,"byteOffset":36980,"byteLength":1440,"target":34962,"byteStride":12},{"buffer":0,"byteOffset":38420,"byteLength":1440,"target":34962,"byteStride":12},{"buffer":0,"byteOffset":39860,"byteLength":960,"target":34962,"byteStride":8},{"buffer":0,"byteOffset":40820,"byteLength":288,"target":34963},{"buffer":0,"byteOffset":41108,"byteLength":1440,"target":34962,"byteStride":12},{"buffer":0,"byteOffset":42548,"byteLength":1440,"target":34962,"byteStride":12},{"buffer":0,"byteOffset":43988,"byteLength":960,"target":34962,"byteStride":8},{"buffer":0,"byteOffset":44948,"byteLength":288,"target":34963},{"buffer":0,"byteOffset":45236,"byteLength":1440,"target":34962,"byteStride":12},{"buffer":0,"byteOffset":46676,"byteLength":1440,"target":34962,"byteStride":12},{"buffer":0,"byteOffset":48116,"byteLength":960,"target":34962,"byteStride":8},{"buffer":0,"byteOffset":49076,"byteLength":288,"target":34963}],"buffers":[{"byteLength":49364,"uri":"data:application/octet-stream;base64,"}],"accessors":[{"bufferView":0,"componentType":5126,"count":16,"max":[0.01171875,0.078125,0.0078125],"min":[-0.01171875,0.046875,-0.0078125],"type":"VEC3"},{"bufferView":1,"componentType":5126,"count":16,"max":[0.936329185962677,0.3511234521865845,0.9701424837112427],"min":[-0.936329185962677,-1,-0.9701424837112427],"type":"VEC3"},{"bufferView":2,"componentType":5126,"count":16,"max":[0.75,0.8576087355613708],"min":[0.025542499497532845,0.052181243896484375],"type":"VEC2"},{"bufferView":3,"componentType":5123,"count":18,"max":[15],"min":[0],"type":"SCALAR"},{"bufferView":4,"componentType":5126,"count":96,"max":[0.015625,0.078125,0.0546875],"min":[-0.015625,0.046875,-0.0546875],"type":"VEC3"},{"bufferView":5,"componentType":5126,"count":96,"max":[1,1,1],"min":[-1,-1,-1],"type":"VEC3"},{"bufferView":6,"componentType":5126,"count":96,"max":[0.34375,0.5158406496047974],"min":[0.004980937577784061,0],"type":"VEC2"},{"bufferView":7,"componentType":5123,"count":132,"max":[95],"min":[0],"type":"SCALAR"},{"bufferView":8,"componentType":5126,"count":120,"max":[0.0005468750023283064,0.041015625,0.0005468750023283064],"min":[-0.0005468750023283064,-0.041015625,-0.0005468750023283064],"type":"VEC3"},{"bufferView":9,"componentType":5126,"count":120,"max":[1,1,1],"min":[-1,-1,-1],"type":"VEC3"},{"bufferView":10,"componentType":5126,"count":120,"max":[1.0352762937545776,1.0352762937545776],"min":[0,0],"type":"VEC2"},{"bufferView":11,"componentType":5123,"count":144,"max":[119],"min":[0],"type":"SCALAR"},{"bufferView":12,"componentType":5126,"count":120,"max":[0.0005468750023283064,0.041015625,0.0005468750023283064],"min":[-0.0005468750023283064,-0.041015625,-0.0005468750023283064],"type":"VEC3"},{"bufferView":13,"componentType":5126,"count":120,"max":[1,1,1],"min":[-1,-1,-1],"type":"VEC3"},{"bufferView":14,"componentType":5126,"count":120,"max":[1.0352762937545776,1.0352762937545776],"min":[0,0],"type":"VEC2"},{"bufferView":15,"componentType":5123,"count":144,"max":[119],"min":[0],"type":"SCALAR"},{"bufferView":16,"componentType":5126,"count":120,"max":[0.0005468750023283064,0.041015625,0.0005468750023283064],"min":[-0.0005468750023283064,-0.041015625,-0.0005468750023283064],"type":"VEC3"},{"bufferView":17,"componentType":5126,"count":120,"max":[1,1,1],"min":[-1,-1,-1],"type":"VEC3"},{"bufferView":18,"componentType":5126,"count":120,"max":[1.0352762937545776,1.0352762937545776],"min":[0,0],"type":"VEC2"},{"bufferView":19,"componentType":5123,"count":144,"max":[119],"min":[0],"type":"SCALAR"},{"bufferView":20,"componentType":5126,"count":120,"max":[0.0005468750023283064,0.041015625,0.0005468750023283064],"min":[-0.0005468750023283064,-0.041015625,-0.0005468750023283064],"type":"VEC3"},{"bufferView":21,"componentType":5126,"count":120,"max":[1,1,1],"min":[-1,-1,-1],"type":"VEC3"},{"bufferView":22,"componentType":5126,"count":120,"max":[1.0352762937545776,1.0352762937545776],"min":[0,0],"type":"VEC2"},{"bufferView":23,"componentType":5123,"count":144,"max":[119],"min":[0],"type":"SCALAR"},{"bufferView":24,"componentType":5126,"count":24,"max":[0.0007812500116415322,0.0015625000232830644,0.03703124821186066],"min":[-0.0007812500116415322,-3.469446951953614e-18,0],"type":"VEC3"},{"bufferView":25,"componentType":5126,"count":24,"max":[1,1,1],"min":[-1,-1,-1],"type":"VEC3"},{"bufferView":26,"componentType":5126,"count":24,"max":[0.29624998569488525,0.29624998569488525],"min":[0,0],"type":"VEC2"},{"bufferView":27,"componentType":5123,"count":36,"max":[23],"min":[0],"type":"SCALAR"},{"bufferView":28,"componentType":5126,"count":24,"max":[0.0006249999860301614,0.00010937500337604433,0.012812499888241291],"min":[-0.0006249999860301614,-0.0017187499906867743,-0.002812500111758709],"type":"VEC3"},{"bufferView":29,"componentType":5126,"count":24,"max":[1,1,1],"min":[-1,-1,-1],"type":"VEC3"},{"bufferView":30,"componentType":5126,"count":24,"max":[0.125,0.125],"min":[0,0],"type":"VEC2"},{"bufferView":31,"componentType":5123,"count":36,"max":[23],"min":[0],"type":"SCALAR"},{"bufferView":32,"componentType":5126,"count":24,"max":[0.00046874998952262104,-0.010937499813735485,0.0031250000465661287],"min":[-0.00046874998952262104,-0.012500000186264515,-6.938893903907228e-18],"type":"VEC3"},{"bufferView":33,"componentType":5126,"count":24,"max":[1,1,1],"min":[-1,-1,-1],"type":"VEC3"},{"bufferView":34,"componentType":5126,"count":24,"max":[0.02500000037252903,0.02499997615814209],"min":[0,0],"type":"VEC2"},{"bufferView":35,"componentType":5123,"count":36,"max":[23],"min":[0],"type":"SCALAR"},{"bufferView":36,"componentType":5126,"count":24,"max":[0.0007812500116415322,0.0015625000232830644,0.03687499836087227],"min":[-0.0007812500116415322,-3.469446951953614e-18,-0.0021875000093132257],"type":"VEC3"},{"bufferView":37,"componentType":5126,"count":24,"max":[1,1,1],"min":[-1,-1,-1],"type":"VEC3"},{"bufferView":38,"componentType":5126,"count":24,"max":[0.3125,0.3125],"min":[0,0],"type":"VEC2"},{"bufferView":39,"componentType":5123,"count":36,"max":[23],"min":[0],"type":"SCALAR"},{"bufferView":40,"componentType":5126,"count":24,"max":[0.0006249999860301614,0.0002656250144354999,0.025624999776482582],"min":[-0.0006249999860301614,-0.0015625000232830644,-0.0024999999441206455],"type":"VEC3"},{"bufferView":41,"componentType":5126,"count":24,"max":[1,1,1],"min":[-1,-1,-1],"type":"VEC3"},{"bufferView":42,"componentType":5126,"count":24,"max":[0.22499999403953552,0.2250000238418579],"min":[0,0],"type":"VEC2"},{"bufferView":43,"componentType":5123,"count":36,"max":[23],"min":[0],"type":"SCALAR"},{"bufferView":44,"componentType":5126,"count":120,"max":[0.0035156249068677425,0.06601562350988388,0.0035156249068677425],"min":[-0.0035156249068677425,0.05898437649011612,-0.0035156249068677425],"type":"VEC3"},{"bufferView":45,"componentType":5126,"count":120,"max":[1,1,1],"min":[-1,-1,-1],"type":"VEC3"},{"bufferView":46,"componentType":5126,"count":120,"max":[0.934374988079071,0.6187499761581421],"min":[0.0031250000465661287,0],"type":"VEC2"},{"bufferView":47,"componentType":5123,"count":144,"max":[119],"min":[0],"type":"SCALAR"},{"bufferView":48,"componentType":5126,"count":120,"max":[0.0035156249068677425,0.06601562350988388,0.0035156249068677425],"min":[-0.0035156249068677425,0.05898437649011612,-0.0035156249068677425],"type":"VEC3"},{"bufferView":49,"componentType":5126,"count":120,"max":[1,1,1],"min":[-1,-1,-1],"type":"VEC3"},{"bufferView":50,"componentType":5126,"count":120,"max":[0.934374988079071,0.6187499761581421],"min":[0.0031250000465661287,0],"type":"VEC2"},{"bufferView":51,"componentType":5123,"count":144,"max":[119],"min":[0],"type":"SCALAR"},{"bufferView":52,"componentType":5126,"count":120,"max":[0.0035156249068677425,0.06601562350988388,0.0035156249068677425],"min":[-0.0035156249068677425,0.05898437649011612,-0.0035156249068677425],"type":"VEC3"},{"bufferView":53,"componentType":5126,"count":120,"max":[1,1,1],"min":[-1,-1,-1],"type":"VEC3"},{"bufferView":54,"componentType":5126,"count":120,"max":[0.934374988079071,0.6187499761581421],"min":[0.0031250000465661287,0],"type":"VEC2"},{"bufferView":55,"componentType":5123,"count":144,"max":[119],"min":[0],"type":"SCALAR"},{"bufferView":56,"componentType":5126,"count":120,"max":[0.0035156249068677425,0.06601562350988388,0.0035156249068677425],"min":[-0.0035156249068677425,0.05898437649011612,-0.0035156249068677425],"type":"VEC3"},{"bufferView":57,"componentType":5126,"count":120,"max":[1,1,1],"min":[-1,-1,-1],"type":"VEC3"},{"bufferView":58,"componentType":5126,"count":120,"max":[0.934374988079071,0.6187499761581421],"min":[0.0031250000465661287,0],"type":"VEC2"},{"bufferView":59,"componentType":5123,"count":144,"max":[119],"min":[0],"type":"SCALAR"},{"bufferView":60,"componentType":5126,"count":120,"max":[0.00390625,0.06484375149011612,0.00390625],"min":[-0.00390625,0.06015624850988388,-0.00390625],"type":"VEC3"},{"bufferView":61,"componentType":5126,"count":120,"max":[1,1,1],"min":[-1,-1,-1],"type":"VEC3"},{"bufferView":62,"componentType":5126,"count":120,"max":[0.9375,0.625],"min":[0,0],"type":"VEC2"},{"bufferView":63,"componentType":5123,"count":144,"max":[119],"min":[0],"type":"SCALAR"},{"bufferView":64,"componentType":5126,"count":120,"max":[0.0003906250058207661,0.0078125,0.0003906250058207661],"min":[-0.0003906250058207661,-0.0078125,-0.0003906250058207661],"type":"VEC3"},{"bufferView":65,"componentType":5126,"count":120,"max":[1,1,1],"min":[-1,-1,-1],"type":"VEC3"},{"bufferView":66,"componentType":5126,"count":120,"max":[0.534375011920929,0.5625],"min":[0.02812499925494194,0],"type":"VEC2"},{"bufferView":67,"componentType":5123,"count":144,"max":[119],"min":[0],"type":"SCALAR"}],"materials":[{"pbrMetallicRoughness":{"metallicFactor":0,"roughnessFactor":1,"baseColorTexture":{"index":0}},"alphaMode":"MASK","alphaCutoff":0.05,"doubleSided":true},{"pbrMetallicRoughness":{"metallicFactor":0,"roughnessFactor":1,"baseColorTexture":{"index":1}},"alphaMode":"MASK","alphaCutoff":0.05,"doubleSided":true},{"pbrMetallicRoughness":{"metallicFactor":0,"roughnessFactor":1,"baseColorTexture":{"index":2}},"alphaMode":"MASK","alphaCutoff":0.05,"doubleSided":true},{"pbrMetallicRoughness":{"metallicFactor":0,"roughnessFactor":1,"baseColorTexture":{"index":3}},"alphaMode":"MASK","alphaCutoff":0.05,"doubleSided":true},{"pbrMetallicRoughness":{"metallicFactor":0,"roughnessFactor":1,"baseColorTexture":{"index":4}},"alphaMode":"MASK","alphaCutoff":0.05,"doubleSided":true},{"pbrMetallicRoughness":{"metallicFactor":0,"roughnessFactor":1,"baseColorTexture":{"index":5}},"alphaMode":"MASK","alphaCutoff":0.05,"doubleSided":true},{"pbrMetallicRoughness":{"metallicFactor":0,"roughnessFactor":1,"baseColorTexture":{"index":6}},"alphaMode":"MASK","alphaCutoff":0.05,"doubleSided":true}],"textures":[{"sampler":0,"source":0,"name":"FrontCone"},{"sampler":1,"source":1,"name":"MainBody"},{"sampler":2,"source":2,"name":"SimpleDecor"},{"sampler":3,"source":3,"name":"SimpleDecor"},{"sampler":4,"source":4,"name":"Engine"},{"sampler":5,"source":5,"name":"ShieldGenerator"},{"sampler":6,"source":6,"name":"SidePipes"}],"samplers":[{"magFilter":9728,"minFilter":9728,"wrapS":33071,"wrapT":33071},{"magFilter":9728,"minFilter":9728,"wrapS":33071,"wrapT":33071},{"magFilter":9728,"minFilter":9728,"wrapS":33071,"wrapT":33071},{"magFilter":9728,"minFilter":9728,"wrapS":33071,"wrapT":33071},{"magFilter":9728,"minFilter":9728,"wrapS":33071,"wrapT":33071},{"magFilter":9728,"minFilter":9728,"wrapS":33071,"wrapT":33071},{"magFilter":9728,"minFilter":9728,"wrapS":33071,"wrapT":33071}],"images":[{"mimeType":"image/png","uri":"data:image/png;base64,"},{"mimeType":"image/png","uri":"data:image/png;base64,"},{"mimeType":"image/png","uri":"data:image/png;base64,"},{"mimeType":"image/png","uri":"data:image/png;base64,"},{"mimeType":"image/png","uri":"data:image/png;base64,"},{"mimeType":"image/png","uri":"data:image/png;base64,"},{"mimeType":"image/png","uri":"data:image/png;base64,"}],"meshes":[{"primitives":[{"mode":4,"attributes":{"POSITION":0,"NORMAL":1,"TEXCOORD_0":2},"indices":3,"material":0}]},{"primitives":[{"mode":4,"attributes":{"POSITION":4,"NORMAL":5,"TEXCOORD_0":6},"indices":7,"material":1}]},{"primitives":[{"mode":4,"attributes":{"POSITION":8,"NORMAL":9,"TEXCOORD_0":10},"indices":11,"material":2}]},{"primitives":[{"mode":4,"attributes":{"POSITION":12,"NORMAL":13,"TEXCOORD_0":14},"indices":15,"material":2}]},{"primitives":[{"mode":4,"attributes":{"POSITION":16,"NORMAL":17,"TEXCOORD_0":18},"indices":19,"material":2}]},{"primitives":[{"mode":4,"attributes":{"POSITION":20,"NORMAL":21,"TEXCOORD_0":22},"indices":23,"material":2}]},{"primitives":[{"mode":4,"attributes":{"POSITION":24,"NORMAL":25,"TEXCOORD_0":26},"indices":27,"material":3}]},{"primitives":[{"mode":4,"attributes":{"POSITION":28,"NORMAL":29,"TEXCOORD_0":30},"indices":31,"material":3}]},{"primitives":[{"mode":4,"attributes":{"POSITION":32,"NORMAL":33,"TEXCOORD_0":34},"indices":35,"material":3}]},{"primitives":[{"mode":4,"attributes":{"POSITION":36,"NORMAL":37,"TEXCOORD_0":38},"indices":39,"material":3}]},{"primitives":[{"mode":4,"attributes":{"POSITION":40,"NORMAL":41,"TEXCOORD_0":42},"indices":43,"material":3}]},{"primitives":[{"mode":4,"attributes":{"POSITION":44,"NORMAL":45,"TEXCOORD_0":46},"indices":47,"material":4}]},{"primitives":[{"mode":4,"attributes":{"POSITION":48,"NORMAL":49,"TEXCOORD_0":50},"indices":51,"material":4}]},{"primitives":[{"mode":4,"attributes":{"POSITION":52,"NORMAL":53,"TEXCOORD_0":54},"indices":55,"material":4}]},{"primitives":[{"mode":4,"attributes":{"POSITION":56,"NORMAL":57,"TEXCOORD_0":58},"indices":59,"material":4}]},{"primitives":[{"mode":4,"attributes":{"POSITION":60,"NORMAL":61,"TEXCOORD_0":62},"indices":63,"material":5}]},{"primitives":[{"mode":4,"attributes":{"POSITION":64,"NORMAL":65,"TEXCOORD_0":66},"indices":67,"material":6}]}]}