# Made in Blockbench 4.12.3
mtllib AsteroidTitaniumAlloy.mtl

o AsteroidBody
v 0 -0.125 0
v 0 0.125 0
v 0.016746875 0.108253125 0.0625
v 0.02900640625 0.0625 0.108253125
v 0.03349359375 0 0.125
v 0.02900640625 -0.0625 0.108253125
v 0.016746875 -0.108253125 0.0625
v 0.045753125 0.108253125 0.045753125
v 0.079246875 0.0625 0.079246875
v 0.09150640625 0 0.09150640625
v 0.079246875 -0.0625 0.079246875
v 0.045753125 -0.108253125 0.045753125
v 0.0625 0.108253125 0.016746875
v 0.108253125 0.0625 0.02900640625
v 0.125 0 0.03349359375
v 0.108253125 -0.0625 0.02900640625
v 0.0625 -0.108253125 0.016746875
v 0.0625 0.108253125 -0.016746875
v 0.108253125 0.0625 -0.02900640625
v 0.125 0 -0.03349359375
v 0.108253125 -0.0625 -0.02900640625
v 0.0625 -0.108253125 -0.016746875
v 0.045753125 0.108253125 -0.045753125
v 0.079246875 0.0625 -0.079246875
v 0.09150640625 0 -0.09150640625
v 0.079246875 -0.0625 -0.079246875
v 0.045753125 -0.108253125 -0.045753125
v 0.016746875 0.108253125 -0.0625
v 0.02900640625 0.0625 -0.108253125
v 0.03349359375 0 -0.125
v 0.02900640625 -0.0625 -0.108253125
v 0.016746875 -0.108253125 -0.0625
v -0.016746875 0.108253125 -0.0625
v -0.02900640625 0.0625 -0.108253125
v -0.03349359375 0 -0.125
v -0.02900640625 -0.0625 -0.108253125
v -0.016746875 -0.108253125 -0.0625
v -0.045753125 0.108253125 -0.045753125
v -0.079246875 0.0625 -0.079246875
v -0.09150640625 0 -0.09150640625
v -0.079246875 -0.0625 -0.079246875
v -0.045753125 -0.108253125 -0.045753125
v -0.0625 0.108253125 -0.016746875
v -0.108253125 0.0625 -0.02900640625
v -0.125 0 -0.03349359375
v -0.108253125 -0.0625 -0.02900640625
v -0.0625 -0.108253125 -0.016746875
v -0.0625 0.108253125 0.016746875
v -0.108253125 0.0625 0.02900640625
v -0.125 0 0.03349359375
v -0.108253125 -0.0625 0.02900640625
v -0.0625 -0.108253125 0.016746875
v -0.045753125 0.108253125 0.045753125
v -0.079246875 0.0625 0.079246875
v -0.09150640625 0 0.09150640625
v -0.079246875 -0.0625 0.079246875
v -0.045753125 -0.108253125 0.045753125
v -0.016746875 0.108253125 0.0625
v -0.02900640625 0.0625 0.108253125
v -0.03349359375 0 0.125
v -0.02900640625 -0.0625 0.108253125
v -0.016746875 -0.108253125 0.0625
vt 0.14939203125 0.8692134375
vt 0.1786803125 0.88546234375
vt 0.13264515625 0.9339196875
vt 0.14939203125 0.8692134375
vt 0.16165140625 0.8045071875
vt 0.2156434375 0.8257278125
vt 0.18056453125 0.8814653125
vt 0.3593703125 0.79232609375
vt 0.34599375 0.72885875
vt 0.41234 0.719611875
vt 0.4168275 0.784318125
vt 0.34599375 0.72885875
vt 0.34150625 0.6641524999999999
vt 0.3989634375 0.65614453125
vt 0.41234 0.719611875
vt 0.34150625 0.6641524999999999
vt 0.34471625 0.5983734375
vt 0.377889375 0.59375
vt 0.3989634375 0.65614453125
vt 0.71009765625 0.73953765625
vt 0.680809375 0.7557865625
vt 0.6640625 0.6910803125
vt 0.1786803125 0.88546234375
vt 0.1964084375 0.9138796875
vt 0.13264515625 0.9339196875
vt 0.18056453125 0.8814653125
vt 0.2156434375 0.8257278125
vt 0.25813125 0.86522765625
vt 0.205095 0.904270625
vt 0.4112975 0.596818125
vt 0.415785 0.532111875
vt 0.48213125 0.54135875
vt 0.4687546875 0.6048260937500001
vt 0.415785 0.532111875
vt 0.4291615625 0.46864453125000005
vt 0.48661875 0.47665250000000003
vt 0.48213125 0.54135875
vt 0.758508125 0.78418765625
vt 0.71009765625 0.73953765625
vt 0.72782578125 0.7111203125000001
vt 0.78921375 0.73496765625
vt 0.72782578125 0.7111203125000001
vt 0.71009765625 0.73953765625
vt 0.6640625 0.6910803125
vt 0.1964084375 0.9138796875
vt 0.198124375 0.947329375
vt 0.13264515625 0.9339196875
vt 0.014503125 0.796875
vt 0.00224375 0.734375
vt 0.06025625 0.734375
vt 0.047996875 0.796875
vt 0.48661875 0.6060650000000001
vt 0.48213125 0.54135875
vt 0.54911875 0.54135875
vt 0.54463125 0.6060650000000001
vt 0.48213125 0.54135875
vt 0.48661875 0.47665250000000003
vt 0.54463125 0.47665250000000003
vt 0.54911875 0.54135875
vt 0.48661875 0.47665250000000003
vt 0.498878125 0.41194624999999996
vt 0.532371875 0.41194624999999996
vt 0.54463125 0.47665250000000003
vt 0.72954171875 0.677670625
vt 0.72782578125 0.7111203125000001
vt 0.6640625 0.6910803125
vt 0.198124375 0.947329375
vt 0.1833975 0.97741171875
vt 0.13264515625 0.9339196875
vt 0.26348765625 0.4375
vt 0.21045140625 0.39845703125
vt 0.25293921875 0.35895718750000005
vt 0.288018125 0.41469453125
vt 0.5624953125 0.6048260937500001
vt 0.54911875 0.54135875
vt 0.615465 0.532111875
vt 0.6199525 0.596818125
vt 0.54911875 0.54135875
vt 0.54463125 0.47665250000000003
vt 0.6020884375 0.46864453125000005
vt 0.615465 0.532111875
vt 0.54463125 0.47665250000000003
vt 0.54784125 0.41087343750000005
vt 0.581014375 0.40625
vt 0.6020884375 0.46864453125000005
vt 0.71481484375 0.64758828125
vt 0.72954171875 0.677670625
vt 0.6640625 0.6910803125
vt 0.1833975 0.97741171875
vt 0.155925625 0.9965725
vt 0.13264515625 0.9339196875
vt 0.288018125 0.41469453125
vt 0.25293921875 0.35895718750000005
vt 0.30693125 0.33773656249999995
vt 0.319190625 0.4024428125
vt 0.0050475 0.596818125
vt 0.009535 0.532111875
vt 0.07588125 0.54135875
vt 0.0625046875 0.6048260937500001
vt 0.009535 0.532111875
vt 0.0229115625 0.46864453125000005
vt 0.08036875 0.47665250000000003
vt 0.07588125 0.54135875
vt 0.0229115625 0.46864453125000005
vt 0.043985625 0.40625
vt 0.07715875 0.41087343750000005
vt 0.08036875 0.47665250000000003
vt 0.68734296875 0.6284275
vt 0.71481484375 0.64758828125
vt 0.6640625 0.6910803125
vt 0.1426825 1
vt 0.1093646875 0.9965725
vt 0.13264515625 0.9339196875
vt 0.319190625 0.4024428125
vt 0.30693125 0.33773656249999995
vt 0.36494375 0.33773656249999995
vt 0.352684375 0.4024428125
vt 0.08036875 0.6060650000000001
vt 0.07588125 0.54135875
vt 0.14286875 0.54135875
vt 0.13838125 0.6060650000000001
vt 0.07588125 0.54135875
vt 0.08036875 0.47665250000000003
vt 0.13838125 0.47665250000000003
vt 0.14286875 0.54135875
vt 0.08036875 0.47665250000000003
vt 0.092628125 0.41194624999999996
vt 0.126121875 0.41194624999999996
vt 0.13838125 0.47665250000000003
vt 0.65402515625 0.625
vt 0.68734296875 0.6284275
vt 0.6640625 0.6910803125
vt 0.1093646875 0.9965725
vt 0.0818928125 0.97741171875
vt 0.13264515625 0.9339196875
vt 0.352684375 0.4024428125
vt 0.36494375 0.33773656249999995
vt 0.41893578125 0.35895718750000005
vt 0.383856875 0.41469453125
vt 0.1562453125 0.6048260937500001
vt 0.14286875 0.54135875
vt 0.209215 0.532111875
vt 0.2137025 0.596818125
vt 0.14286875 0.54135875
vt 0.13838125 0.47665250000000003
vt 0.1958384375 0.46864453125000005
vt 0.209215 0.532111875
vt 0.13838125 0.47665250000000003
vt 0.14159125 0.41087343750000005
vt 0.174764375 0.40625
vt 0.1958384375 0.46864453125000005
vt 0.61331015625 0.64758828125
vt 0.64078203125 0.6284275
vt 0.6640625 0.6910803125
vt 0.0818928125 0.97741171875
vt 0.0671659375 0.947329375
vt 0.13264515625 0.9339196875
vt 0.383856875 0.41469453125
vt 0.41893578125 0.35895718750000005
vt 0.46142359375 0.39845703125
vt 0.40838734375 0.4375
vt 0.4112975 0.987443125
vt 0.415785 0.922736875
vt 0.48213125 0.93198375
vt 0.4687546875 0.99545109375
vt 0.415785 0.922736875
vt 0.4291615625 0.85926953125
vt 0.48661875 0.8672775
vt 0.48213125 0.93198375
vt 0.4291615625 0.85926953125
vt 0.450235625 0.796875
vt 0.48340875 0.8014984375
vt 0.48661875 0.8672775
vt 0.59858328125 0.677670625
vt 0.61331015625 0.64758828125
vt 0.6640625 0.6910803125
vt 0.0671659375 0.947329375
vt 0.068881875 0.9138796875
vt 0.13264515625 0.9339196875
vt 0.233253125 1
vt 0.22099375 0.9375
vt 0.27900625 0.9375
vt 0.266746875 1
vt 0.48661875 0.99669
vt 0.48213125 0.93198375
vt 0.54911875 0.93198375
vt 0.54463125 0.99669
vt 0.48213125 0.93198375
vt 0.48661875 0.8672775
vt 0.54463125 0.8672775
vt 0.54911875 0.93198375
vt 0.48661875 0.8672775
vt 0.498878125 0.80257125
vt 0.532371875 0.80257125
vt 0.54463125 0.8672775
vt 0.60029921875 0.7111203125000001
vt 0.59858328125 0.677670625
vt 0.6640625 0.6910803125
vt 0.068881875 0.9138796875
vt 0.08661 0.88546234375
vt 0.13264515625 0.9339196875
vt 0.068881875 0.9138796875
vt 0.00749375 0.89003234375
vt 0.03819953125 0.84081234375
vt 0.08661 0.88546234375
vt 0.5624953125 0.99545109375
vt 0.54911875 0.93198375
vt 0.615465 0.922736875
vt 0.6199525 0.987443125
vt 0.54911875 0.93198375
vt 0.54463125 0.8672775
vt 0.6020884375 0.85926953125
vt 0.615465 0.922736875
vt 0.53891125 0.73496765625
vt 0.60029921875 0.7111203125000001
vt 0.61802734375 0.73953765625
vt 0.569616875 0.78418765625
vt 0.61802734375 0.73953765625
vt 0.60029921875 0.7111203125000001
vt 0.6640625 0.6910803125
vt 0.08661 0.88546234375
vt 0.11589828125 0.8692134375
vt 0.13264515625 0.9339196875
vt 0.08661 0.88546234375
vt 0.04449875 0.83482796875
vt 0.09522734375 0.80668421875
vt 0.11589828125 0.8692134375
vt 0.2081725 0.784318125
vt 0.21266 0.719611875
vt 0.27900625 0.72885875
vt 0.2656296875 0.79232609375
vt 0.21266 0.719611875
vt 0.2260365625 0.65614453125
vt 0.28349375 0.6641524999999999
vt 0.27900625 0.72885875
vt 0.2260365625 0.65614453125
vt 0.247110625 0.59375
vt 0.28028375 0.5983734375
vt 0.28349375 0.6641524999999999
vt 0.647315625 0.7557865625
vt 0.61802734375 0.73953765625
vt 0.6640625 0.6910803125
vt 0.11589828125 0.8692134375
vt 0.14939203125 0.8692134375
vt 0.13264515625 0.9339196875
vt 0.11589828125 0.8692134375
vt 0.10363890625 0.8045071875
vt 0.16165140625 0.8045071875
vt 0.14939203125 0.8692134375
vt 0.28349375 0.793565
vt 0.27900625 0.72885875
vt 0.34599375 0.72885875
vt 0.34150625 0.793565
vt 0.27900625 0.72885875
vt 0.28349375 0.6641524999999999
vt 0.34150625 0.6641524999999999
vt 0.34599375 0.72885875
vt 0.28349375 0.6641524999999999
vt 0.295753125 0.59944625
vt 0.329246875 0.59944625
vt 0.34150625 0.6641524999999999
vt 0.680809375 0.7557865625
vt 0.647315625 0.7557865625
vt 0.6640625 0.6910803125
vn 0.12941055896651493 0.9659256086491206 0.2241442075624541
vn 0.35355238841153014 0.7071069909195669 0.6123727721259152
vn 0.48296163347596527 0.25881897762201533 0.8365170634320152
vn 0.4829616970818543 -0.2588189727524458 0.836517028215914
vn 0.35355521032211207 -0.7071065857108768 0.6123716107874316
vn 0.12941055896651493 -0.9659256086491206 0.2241442075624541
vn 0.2241442075624541 0.9659256086491206 0.12941055896651493
vn 0.612371813393944 0.7071080979645639 0.3535518348892414
vn 0.836517048823622 0.25881904057539434 0.48296162504183543
vn 0.836517011347562 -0.2588190454448889 0.4829616873429397
vn 0.6123699502175285 -0.7071085031708112 0.3535542515854058
vn 0.2241442075624541 -0.9659256086491206 0.12941055896651493
vn 0.258819772900384 0.9659256312759249 0
vn 0.7071067811865476 0.7071067811865476 0
vn 0.9659256312759249 0.258819772900384 0
vn 0.9659256312759249 -0.258819772900384 0
vn 0.7071067811865476 -0.7071067811865476 0
vn 0.258819772900384 -0.9659256312759249 0
vn 0.2241442075624541 0.9659256086491206 -0.12941055896651493
vn 0.6123727721259152 0.7071069909195669 -0.35355238841153014
vn 0.8365170634320152 0.25881897762201533 -0.48296163347596527
vn 0.8365170282159139 -0.2588189727524458 -0.48296169708185427
vn 0.6123716107874316 -0.7071065857108768 -0.35355521032211207
vn 0.2241442075624541 -0.9659256086491206 -0.12941055896651493
vn 0.12941055896651493 0.9659256086491206 -0.2241442075624541
vn 0.3535518348892414 0.7071080979645639 -0.612371813393944
vn 0.48296162504183543 0.25881904057539434 -0.836517048823622
vn 0.4829616873429397 -0.2588190454448889 -0.836517011347562
vn 0.3535542515854058 -0.7071085031708112 -0.6123699502175285
vn 0.12941055896651493 -0.9659256086491206 -0.2241442075624541
vn 0 0.9659256312759249 -0.258819772900384
vn 0 0.7071067811865476 -0.7071067811865476
vn 0 0.258819772900384 -0.9659256312759249
vn 0 -0.258819772900384 -0.9659256312759249
vn 0 -0.7071067811865476 -0.7071067811865476
vn 0 -0.9659256312759249 -0.258819772900384
vn -0.12941055896651493 0.9659256086491206 -0.2241442075624541
vn -0.35355238841153014 0.7071069909195669 -0.6123727721259152
vn -0.48296163347596527 0.25881897762201533 -0.8365170634320152
vn -0.4829616970818543 -0.2588189727524458 -0.836517028215914
vn -0.35355521032211207 -0.7071065857108768 -0.6123716107874316
vn -0.12941055896651493 -0.9659256086491206 -0.2241442075624541
vn -0.2241442075624541 0.9659256086491206 -0.12941055896651493
vn -0.612371813393944 0.7071080979645639 -0.3535518348892414
vn -0.836517048823622 0.25881904057539434 -0.48296162504183543
vn -0.836517011347562 -0.2588190454448889 -0.4829616873429397
vn -0.6123699502175285 -0.7071085031708112 -0.3535542515854058
vn -0.2241442075624541 -0.9659256086491206 -0.12941055896651493
vn -0.258819772900384 0.9659256312759249 0
vn -0.7071067811865476 0.7071067811865476 0
vn -0.9659256312759249 0.258819772900384 0
vn -0.9659256312759249 -0.258819772900384 0
vn -0.7071067811865476 -0.7071067811865476 0
vn -0.258819772900384 -0.9659256312759249 0
vn -0.2241442075624541 0.9659256086491206 0.12941055896651493
vn -0.6123727721259152 0.7071069909195669 0.35355238841153014
vn -0.8365170634320152 0.25881897762201533 0.48296163347596527
vn -0.8365170282159139 -0.2588189727524458 0.48296169708185427
vn -0.6123716107874316 -0.7071065857108768 0.35355521032211207
vn -0.2241442075624541 -0.9659256086491206 0.12941055896651493
vn -0.12941055896651493 0.9659256086491206 0.2241442075624541
vn -0.3535518348892414 0.7071080979645639 0.612371813393944
vn -0.48296162504183543 0.25881904057539434 0.836517048823622
vn -0.4829616873429397 -0.2588190454448889 0.836517011347562
vn -0.3535542515854058 -0.7071085031708112 0.6123699502175285
vn -0.12941055896651493 -0.9659256086491206 0.2241442075624541
vn 0 0.9659256312759249 0.258819772900384
vn 0 0.7071067811865476 0.7071067811865476
vn 0 0.258819772900384 0.9659256312759249
vn 0 -0.258819772900384 0.9659256312759249
vn 0 -0.7071067811865476 0.7071067811865476
vn 0 -0.9659256312759249 0.258819772900384
usemtl m_3267ce4e-0343-5787-4844-8efba6d06080
f 3/1/1 8/2/1 2/3/1
f 3/4/2 4/5/2 9/6/2 8/7/2
f 4/8/3 5/9/3 10/10/3 9/11/3
f 5/12/4 6/13/4 11/14/4 10/15/4
f 6/16/5 7/17/5 12/18/5 11/19/5
f 12/20/6 7/21/6 1/22/6
f 8/23/7 13/24/7 2/25/7
f 8/26/8 9/27/8 14/28/8 13/29/8
f 9/30/9 10/31/9 15/32/9 14/33/9
f 10/34/10 11/35/10 16/36/10 15/37/10
f 11/38/11 12/39/11 17/40/11 16/41/11
f 17/42/12 12/43/12 1/44/12
f 13/45/13 18/46/13 2/47/13
f 13/48/14 14/49/14 19/50/14 18/51/14
f 14/52/15 15/53/15 20/54/15 19/55/15
f 15/56/16 16/57/16 21/58/16 20/59/16
f 16/60/17 17/61/17 22/62/17 21/63/17
f 22/64/18 17/65/18 1/66/18
f 18/67/19 23/68/19 2/69/19
f 18/70/20 19/71/20 24/72/20 23/73/20
f 19/74/21 20/75/21 25/76/21 24/77/21
f 20/78/22 21/79/22 26/80/22 25/81/22
f 21/82/23 22/83/23 27/84/23 26/85/23
f 27/86/24 22/87/24 1/88/24
f 23/89/25 28/90/25 2/91/25
f 23/92/26 24/93/26 29/94/26 28/95/26
f 24/96/27 25/97/27 30/98/27 29/99/27
f 25/100/28 26/101/28 31/102/28 30/103/28
f 26/104/29 27/105/29 32/106/29 31/107/29
f 32/108/30 27/109/30 1/110/30
f 28/111/31 33/112/31 2/113/31
f 28/114/32 29/115/32 34/116/32 33/117/32
f 29/118/33 30/119/33 35/120/33 34/121/33
f 30/122/34 31/123/34 36/124/34 35/125/34
f 31/126/35 32/127/35 37/128/35 36/129/35
f 37/130/36 32/131/36 1/132/36
f 33/133/37 38/134/37 2/135/37
f 33/136/38 34/137/38 39/138/38 38/139/38
f 34/140/39 35/141/39 40/142/39 39/143/39
f 35/144/40 36/145/40 41/146/40 40/147/40
f 36/148/41 37/149/41 42/150/41 41/151/41
f 42/152/42 37/153/42 1/154/42
f 38/155/43 43/156/43 2/157/43
f 38/158/44 39/159/44 44/160/44 43/161/44
f 39/162/45 40/163/45 45/164/45 44/165/45
f 40/166/46 41/167/46 46/168/46 45/169/46
f 41/170/47 42/171/47 47/172/47 46/173/47
f 47/174/48 42/175/48 1/176/48
f 43/177/49 48/178/49 2/179/49
f 43/180/50 44/181/50 49/182/50 48/183/50
f 44/184/51 45/185/51 50/186/51 49/187/51
f 45/188/52 46/189/52 51/190/52 50/191/52
f 46/192/53 47/193/53 52/194/53 51/195/53
f 52/196/54 47/197/54 1/198/54
f 48/199/55 53/200/55 2/201/55
f 48/202/56 49/203/56 54/204/56 53/205/56
f 49/206/57 50/207/57 55/208/57 54/209/57
f 50/210/58 51/211/58 56/212/58 55/213/58
f 51/214/59 52/215/59 57/216/59 56/217/59
f 57/218/60 52/219/60 1/220/60
f 53/221/61 58/222/61 2/223/61
f 53/224/62 54/225/62 59/226/62 58/227/62
f 54/228/63 55/229/63 60/230/63 59/231/63
f 55/232/64 56/233/64 61/234/64 60/235/64
f 56/236/65 57/237/65 62/238/65 61/239/65
f 62/240/66 57/241/66 1/242/66
f 58/243/67 3/244/67 2/245/67
f 58/246/68 59/247/68 4/248/68 3/249/68
f 59/250/69 60/251/69 5/252/69 4/253/69
f 60/254/70 61/255/70 6/256/70 5/257/70
f 61/258/71 62/259/71 7/260/71 6/261/71
f 7/262/72 62/263/72 1/264/72
o MetalFrag1
v 0 0.10211771728019903 -0.10211771728019903
v 0.015625 0.09106917382415922 -0.06897208691207962
v 0.015625 0.06897208691207961 -0.09106917382415922
v -0.015625 0.09106917382415922 -0.06897208691207962
v -0.015625 0.06897208691207961 -0.09106917382415922
vt 0.5 0.875
vt 0.5 1
vt 0.375 1
vt 0.375 0.875
vt 0.005445625 0.6479431250000001
vt 0.119554375 0.596910625
vt 0.119554375 0.75
vt 0.005445625 0.897943125
vt 0.119554375 0.846910625
vt 0.119554375 1
vt 0.192945625 0.897943125
vt 0.307054375 0.846910625
vt 0.307054375 1
vt 0.192945625 0.6479431250000001
vt 0.307054375 0.596910625
vt 0.307054375 0.75
vn 0 -0.7071067811865475 0.7071067811865476
vn 0.8944271909999161 0.31622776601683794 -0.316227766016838
vn 0 0.948683298050514 0.3162277660168379
vn 0 -0.316227766016838 -0.9486832980505138
vn -0.8944271909999161 0.31622776601683794 -0.316227766016838
usemtl m_11b914aa-fb5c-4be6-5e0a-12e0c3740f85
f 65/265/73 64/266/73 66/267/73 67/268/73
f 64/269/74 65/270/74 63/271/74
f 66/272/75 64/273/75 63/274/75
f 65/275/76 67/276/76 63/277/76
f 67/278/77 66/279/77 63/280/77
o MetalFrag2
v 0.16868054621460016 0.03988928547836132 0
v 0.11639827723098715 -0.006472086912079612 0.03125
v 0.11639827723098715 -0.006472086912079612 -0.03125
v 0.10022208691207961 0.053898277230987154 0.03125
v 0.10022208691207961 0.053898277230987154 -0.03125
vt 0.8125 0.75
vt 0.8125 1
vt 0.5625 1
vt 0.5625 0.75
vt 0.510890625 0.29587125000000003
vt 0.739109375 0.19381000000000004
vt 0.739109375 0.5
vt 0.010890625 0.79587125
vt 0.239109375 0.69381
vt 0.239109375 1
vt 0.260890625 0.54587125
vt 0.489109375 0.44381000000000004
vt 0.489109375 0.75
vt 0.010890625 0.23337125000000003
vt 0.239109375 0.13131000000000004
vt 0.239109375 0.4375
vn -0.9659258262890683 -0.25881904510252074 0
vn 0.6634699532493302 -0.74820292777784 0
vn 0.43197516176100204 0.11574739574416408 0.8944271909999159
vn 0.43197516176100204 0.11574739574416408 -0.8944271909999159
vn 0.20048037027267387 0.9796977192661681 0
usemtl m_11b914aa-fb5c-4be6-5e0a-12e0c3740f85
f 70/281/78 69/282/78 71/283/78 72/284/78
f 69/285/79 70/286/79 68/287/79
f 71/288/80 69/289/80 68/290/80
f 70/291/81 72/292/81 68/293/81
f 72/294/82 71/295/82 68/296/82
o MetalFrag3
v 0 -0.1015625 0.172846528538923
v -0.0390625 -0.08851661733532964 0.07212539693413185
v 0.0390625 -0.08851661733532964 0.07212539693413186
v -0.0390625 -0.020858382664670362 0.11118789693413184
v 0.0390625 -0.020858382664670348 0.11118789693413186
vt 0.3125 -0.0625
vt 0.3125 0.25
vt 0 0.25
vt 0 -0.0625
vt 0.572915 0.11441875000000001
vt 0.864585 0.0022381249999999797
vt 0.864585 0.4375
vt 0.010415 0.67691875
vt 0.302085 0.564738125
vt 0.302085 1
vt 0.260415 0.36441875
vt 0.552085 0.252238125
vt 0.552085 0.6875
vt 0.635415 0.67691875
vt 0.927085 0.564738125
vt 0.927085 1
vn 1.090295417914697e-16 0.49999999999999994 -0.8660254037844388
vn 1.9367587217984973e-16 -0.9917157573394818 -0.12845176777521583
vn -0.9230769230769231 -0.19230769230769226 0.3330866937632456
vn 0.9230769230769231 -0.19230769230769226 0.3330866937632456
vn -2.775447504809803e-16 0.6071003727240973 0.7946251553017073
usemtl m_11b914aa-fb5c-4be6-5e0a-12e0c3740f85
f 75/297/83 74/298/83 76/299/83 77/300/83
f 74/301/84 75/302/84 73/303/84
f 76/304/85 74/305/85 73/306/85
f 75/307/86 77/308/86 73/309/86
f 77/310/87 76/311/87 73/312/87
o MetalFrag5
v -0.11671968118845355 0.12343516893193195 -0.014060163474163452
v -0.08948005881871576 0.06540404969645483 0.015860982659163695
v -0.05941178096967831 0.10101800957978926 0.0208419618421485
v -0.08090133982262405 0.06460543637483203 -0.030215404158257467
v -0.0508330619735866 0.10021939625816648 -0.025234424975272663
vt 0.6875 0.8125
vt 0.6875 1
vt 0.5 1
vt 0.5 0.8125
vt 0.005294375 0.40413687499999995
vt 0.182205625 0.342019375
vt 0.182205625 0.625
vt 0.005294375 0.7791368750000001
vt 0.182205625 0.717019375
vt 0.182205625 1
vt 0.255294375 0.7791368750000001
vt 0.432205625 0.717019375
vt 0.432205625 1
vt 0.255294375 0.40413687499999995
vt 0.432205625 0.342019375
vt 0.432205625 0.625
vn 0.7450099326768378 -0.6499751352739408 0.1499750770577435
vn -0.4329505561594323 0.24417382547638933 0.8677170961053287
vn -0.8622049767909048 -0.48316814192990926 -0.15215493623604323
vn 0.33902407363285036 0.9396111548184423 0.04683540581804497
vn -0.09023034699862237 0.21226918741214384 -0.973036626523327
usemtl m_11b914aa-fb5c-4be6-5e0a-12e0c3740f85
f 80/313/88 79/314/88 81/315/88 82/316/88
f 79/317/89 80/318/89 78/319/89
f 81/320/90 79/321/90 78/322/90
f 80/323/91 82/324/91 78/325/91
f 82/326/92 81/327/92 78/328/92
o MetalFrag4
v 0.0191442341987613 -0.20630999849938156 -0.14459223873035854
v -0.05753353091660299 -0.10836672842257135 -0.0291096429266011
v -0.03738643314171579 -0.05220281055455531 -0.10141988619105072
v 0.03313215887532439 -0.11028385644558213 -0.005337394091091824
v 0.05327925665021159 -0.054119938577566085 -0.07764763735554145
vt 0.375 -0.4375
vt 0.375 -0.0625
vt 0 -0.0625
vt 0 -0.4375
vt 0.6947925 -0.2628587499999999
vt 1.0552075 -0.36642312500000007
vt 1.0552075 0.3125
vt 0.0072925 0.42464124999999997
vt 0.3677075 0.32107687500000004
vt 0.3677075 1
vt 0.3197925 0.04964124999999997
vt 0.6802075 -0.05392312500000007
vt 0.6802075 0.625
vt 1.0072925 0.42464124999999997
vt 1.3677075 0.32107687500000004
vt 1.3677075 1
vn -0.13613677652452486 0.8004266559956029 0.5837670309714382
vn -0.8871958475222878 -0.21041396728382344 -0.4106208598099855
vn -0.1667205298614067 -0.8038171931778124 0.5710360626742195
vn 0.24495775962568744 0.3438153788752583 -0.9065245067001922
vn 0.9654330772865682 -0.24958784701873069 0.0751324157840133
usemtl m_11b914aa-fb5c-4be6-5e0a-12e0c3740f85
f 85/329/93 84/330/93 86/331/93 87/332/93
f 84/333/94 85/334/94 83/335/94
f 86/336/95 84/337/95 83/338/95
f 85/339/96 87/340/96 83/341/96
f 87/342/97 86/343/97 83/344/97