{"asset":{"version":"2.0","generator":"Blockbench 4.12.4 glTF exporter"},"scenes":[{"nodes":[7],"name":"blockbench_export"}],"scene":0,"nodes":[{"name":"AsteroidBody","mesh":0},{"rotation":[-0.3826834323650898,0,0,0.9238795325112867],"translation":[0,0.046875,-0.046875],"name":"MetalFrag1","mesh":1},{"rotation":[0,0,-0.6087614290087207,0.7933533402912352],"translation":[0.078125,0.015625,0],"name":"MetalFrag2","mesh":2},{"rotation":[0.6123724356957946,-0.3535533905932738,-0.6123724356957945,0.35355339059327384],"translation":[0,-0.046875,0.078125],"name":"MetalFrag3","mesh":3},{"rotation":[0.26137763965498534,-0.696284549668376,0.3266407228920152,0.5832455688044935],"translation":[-0.046875,0.0625,0],"name":"MetalFrag5","mesh":4},{"rotation":[0.12451576546189605,0.3143901929254581,-0.9405897895199794,0.03074863565252583],"translation":[0,-0.09375,-0.0625],"name":"MetalFrag4","mesh":5},{"name":"MetalFragments","children":[1,2,3,4,5]},{"children":[0,6]}],"bufferViews":[{"buffer":0,"byteOffset":0,"byteLength":3168,"target":34962,"byteStride":12},{"buffer":0,"byteOffset":3168,"byteLength":3168,"target":34962,"byteStride":12},{"buffer":0,"byteOffset":6336,"byteLength":2112,"target":34962,"byteStride":8},{"buffer":0,"byteOffset":8448,"byteLength":720,"target":34963},{"buffer":0,"byteOffset":9168,"byteLength":192,"target":34962,"byteStride":12},{"buffer":0,"byteOffset":9360,"byteLength":192,"target":34962,"byteStride":12},{"buffer":0,"byteOffset":9552,"byteLength":128,"target":34962,"byteStride":8},{"buffer":0,"byteOffset":9680,"byteLength":36,"target":34963},{"buffer":0,"byteOffset":9716,"byteLength":192,"target":34962,"byteStride":12},{"buffer":0,"byteOffset":9908,"byteLength":192,"target":34962,"byteStride":12},{"buffer":0,"byteOffset":10100,"byteLength":128,"target":34962,"byteStride":8},{"buffer":0,"byteOffset":10228,"byteLength":36,"target":34963},{"buffer":0,"byteOffset":10264,"byteLength":192,"target":34962,"byteStride":12},{"buffer":0,"byteOffset":10456,"byteLength":192,"target":34962,"byteStride":12},{"buffer":0,"byteOffset":10648,"byteLength":128,"target":34962,"byteStride":8},{"buffer":0,"byteOffset":10776,"byteLength":36,"target":34963},{"buffer":0,"byteOffset":10812,"byteLength":192,"target":34962,"byteStride":12},{"buffer":0,"byteOffset":11004,"byteLength":192,"target":34962,"byteStride":12},{"buffer":0,"byteOffset":11196,"byteLength":128,"target":34962,"byteStride":8},{"buffer":0,"byteOffset":11324,"byteLength":36,"target":34963},{"buffer":0,"byteOffset":11360,"byteLength":192,"target":34962,"byteStride":12},{"buffer":0,"byteOffset":11552,"byteLength":192,"target":34962,"byteStride":12},{"buffer":0,"byteOffset":11744,"byteLength":128,"target":34962,"byteStride":8},{"buffer":0,"byteOffset":11872,"byteLength":36,"target":34963}],"buffers":[{"byteLength":11908,"uri":"data:application/octet-stream;base64,"}],"accessors":[{"bufferView":0,"componentType":5126,"count":264,"max":[0.125,0.125,0.125],"min":[-0.125,-0.125,-0.125],"type":"VEC3"},{"bufferView":1,"componentType":5126,"count":264,"max":[0.9659256339073181,0.9659256339073181,0.9659256339073181],"min":[-0.9659256339073181,-0.9659256339073181,-0.9659256339073181],"type":"VEC3"},{"bufferView":2,"componentType":5126,"count":264,"max":[0.7892137765884399,0.6622633934020996],"min":[0.0022437500301748514,0],"type":"VEC2"},{"bufferView":3,"componentType":5123,"count":360,"max":[263],"min":[0],"type":"SCALAR"},{"bufferView":4,"componentType":5126,"count":16,"max":[0.015625,0.078125,0.015625],"min":[-0.015625,0.046875,-0.015625],"type":"VEC3"},{"bufferView":5,"componentType":5126,"count":16,"max":[0.8944271802902222,0.4472135901451111,0.8944271802902222],"min":[-0.8944271802902222,-1,-0.8944271802902222],"type":"VEC3"},{"bufferView":6,"componentType":5126,"count":16,"max":[0.5,0.40308940410614014],"min":[0.00544562516734004,0],"type":"VEC2"},{"bufferView":7,"componentType":5123,"count":18,"max":[15],"min":[0],"type":"SCALAR"},{"bufferView":8,"componentType":5126,"count":16,"max":[0.03125,0.09375,0.03125],"min":[-0.03125,0.03125,-0.03125],"type":"VEC3"},{"bufferView":9,"componentType":5126,"count":16,"max":[0.8944271802902222,0.4472135901451111,0.8944271802902222],"min":[-0.8944271802902222,-1,-0.8944271802902222],"type":"VEC3"},{"bufferView":10,"componentType":5126,"count":16,"max":[0.8125,0.868690013885498],"min":[0.010890625417232513,0],"type":"VEC2"},{"bufferView":11,"componentType":5123,"count":18,"max":[15],"min":[0],"type":"SCALAR"},{"bufferView":12,"componentType":5126,"count":16,"max":[0.0390625,0.109375,0.0390625],"min":[-0.0390625,0.015625,-0.0390625],"type":"VEC3"},{"bufferView":13,"componentType":5126,"count":16,"max":[0.9230769276618958,0.38461539149284363,0.9230769276618958],"min":[-0.9230769276618958,-1,-0.9230769276618958],"type":"VEC3"},{"bufferView":14,"componentType":5126,"count":16,"max":[0.9270849823951721,1.0625],"min":[0,0],"type":"VEC2"},{"bufferView":15,"componentType":5123,"count":18,"max":[15],"min":[0],"type":"SCALAR"},{"bufferView":16,"componentType":5126,"count":16,"max":[0.0234375,0.09375,0.0234375],"min":[-0.0234375,0.03125,-0.0234375],"type":"VEC3"},{"bufferView":17,"componentType":5126,"count":16,"max":[0.936329185962677,0.3511234521865845,0.936329185962677],"min":[-0.936329185962677,-1,-0.936329185962677],"type":"VEC3"},{"bufferView":18,"componentType":5126,"count":16,"max":[0.6875,0.6579806208610535],"min":[0.005294375121593475,0],"type":"VEC2"},{"bufferView":19,"componentType":5123,"count":18,"max":[15],"min":[0],"type":"SCALAR"},{"bufferView":20,"componentType":5126,"count":16,"max":[0.046875,0.140625,0.046875],"min":[-0.046875,-0.015625,-0.046875],"type":"VEC3"},{"bufferView":21,"componentType":5126,"count":16,"max":[0.9578262567520142,0.2873478829860687,0.9578262567520142],"min":[-0.9578262567520142,-1,-0.9578262567520142],"type":"VEC3"},{"bufferView":22,"componentType":5126,"count":16,"max":[1.3677074909210205,1.4375],"min":[0,0],"type":"VEC2"},{"bufferView":23,"componentType":5123,"count":18,"max":[15],"min":[0],"type":"SCALAR"}],"materials":[{"pbrMetallicRoughness":{"metallicFactor":0,"roughnessFactor":1,"baseColorTexture":{"index":0}},"alphaMode":"MASK","alphaCutoff":0.05,"doubleSided":true},{"pbrMetallicRoughness":{"metallicFactor":0,"roughnessFactor":1,"baseColorTexture":{"index":1}},"alphaMode":"MASK","alphaCutoff":0.05,"doubleSided":true}],"textures":[{"sampler":0,"source":0,"name":"AsteroidBody.png"},{"sampler":1,"source":1,"name":"TitaniumAlloy.png"}],"samplers":[{"magFilter":9728,"minFilter":9728,"wrapS":33071,"wrapT":33071},{"magFilter":9728,"minFilter":9728,"wrapS":33071,"wrapT":33071}],"images":[{"mimeType":"image/png","uri":"data:image/png;base64,"},{"mimeType":"image/png","uri":"data:image/png;base64,"}],"meshes":[{"primitives":[{"mode":4,"attributes":{"POSITION":0,"NORMAL":1,"TEXCOORD_0":2},"indices":3,"material":0}]},{"primitives":[{"mode":4,"attributes":{"POSITION":4,"NORMAL":5,"TEXCOORD_0":6},"indices":7,"material":1}]},{"primitives":[{"mode":4,"attributes":{"POSITION":8,"NORMAL":9,"TEXCOORD_0":10},"indices":11,"material":1}]},{"primitives":[{"mode":4,"attributes":{"POSITION":12,"NORMAL":13,"TEXCOORD_0":14},"indices":15,"material":1}]},{"primitives":[{"mode":4,"attributes":{"POSITION":16,"NORMAL":17,"TEXCOORD_0":18},"indices":19,"material":1}]},{"primitives":[{"mode":4,"attributes":{"POSITION":20,"NORMAL":21,"TEXCOORD_0":22},"indices":23,"material":1}]}]}