{"asset":{"version":"2.0","generator":"Blockbench 4.12.4 glTF exporter"},"scenes":[{"nodes":[7],"name":"blockbench_export"}],"scene":0,"nodes":[{"name":"AsteroidBody","mesh":0},{"rotation":[-0.030952253481024126,0.5583025055562673,0.8243037381697819,0.08867704062137104],"translation":[0.04375,0.0625,-0.159375],"name":"GrapheneFrag3","mesh":1},{"rotation":[0.16725223648494209,-0.04160279894895535,-0.8305204482051698,0.5296524158573072],"translation":[-0.159375,0.078125,-0.046875],"name":"GrapheneFrag2","mesh":2},{"rotation":[0.3007057995042731,0,0,0.9537169507482269],"translation":[0,0.046875,0.03125],"name":"GrapheneFrag1","mesh":3},{"rotation":[0.7289716756167083,-0.37511566787599804,0.3010621506126266,0.4870832714546998],"translation":[-0.046875,-0.03125,0.03125],"name":"GrapheneFrag4","mesh":4},{"rotation":[0.40570711163722334,-0.3870925015783626,-0.598669537862933,0.5719754533402367],"translation":[0.028125,0.015625,0.046875],"name":"GrapheneFrag5","mesh":5},{"name":"GrapheneFrags","children":[1,2,3,4,5]},{"children":[0,6]}],"bufferViews":[{"buffer":0,"byteOffset":0,"byteLength":3168,"target":34962,"byteStride":12},{"buffer":0,"byteOffset":3168,"byteLength":3168,"target":34962,"byteStride":12},{"buffer":0,"byteOffset":6336,"byteLength":2112,"target":34962,"byteStride":8},{"buffer":0,"byteOffset":8448,"byteLength":720,"target":34963},{"buffer":0,"byteOffset":9168,"byteLength":720,"target":34962,"byteStride":12},{"buffer":0,"byteOffset":9888,"byteLength":720,"target":34962,"byteStride":12},{"buffer":0,"byteOffset":10608,"byteLength":480,"target":34962,"byteStride":8},{"buffer":0,"byteOffset":11088,"byteLength":144,"target":34963},{"buffer":0,"byteOffset":11232,"byteLength":720,"target":34962,"byteStride":12},{"buffer":0,"byteOffset":11952,"byteLength":720,"target":34962,"byteStride":12},{"buffer":0,"byteOffset":12672,"byteLength":480,"target":34962,"byteStride":8},{"buffer":0,"byteOffset":13152,"byteLength":144,"target":34963},{"buffer":0,"byteOffset":13296,"byteLength":720,"target":34962,"byteStride":12},{"buffer":0,"byteOffset":14016,"byteLength":720,"target":34962,"byteStride":12},{"buffer":0,"byteOffset":14736,"byteLength":480,"target":34962,"byteStride":8},{"buffer":0,"byteOffset":15216,"byteLength":144,"target":34963},{"buffer":0,"byteOffset":15360,"byteLength":720,"target":34962,"byteStride":12},{"buffer":0,"byteOffset":16080,"byteLength":720,"target":34962,"byteStride":12},{"buffer":0,"byteOffset":16800,"byteLength":480,"target":34962,"byteStride":8},{"buffer":0,"byteOffset":17280,"byteLength":144,"target":34963},{"buffer":0,"byteOffset":17424,"byteLength":720,"target":34962,"byteStride":12},{"buffer":0,"byteOffset":18144,"byteLength":720,"target":34962,"byteStride":12},{"buffer":0,"byteOffset":18864,"byteLength":480,"target":34962,"byteStride":8},{"buffer":0,"byteOffset":19344,"byteLength":144,"target":34963}],"buffers":[{"byteLength":19488,"uri":"data:application/octet-stream;base64,"}],"accessors":[{"bufferView":0,"componentType":5126,"count":264,"max":[0.125,0.125,0.125],"min":[-0.125,-0.125,-0.125],"type":"VEC3"},{"bufferView":1,"componentType":5126,"count":264,"max":[0.9659256339073181,0.9659256339073181,0.9659256339073181],"min":[-0.9659256339073181,-0.9659256339073181,-0.9659256339073181],"type":"VEC3"},{"bufferView":2,"componentType":5126,"count":264,"max":[0.7892137765884399,0.6622633934020996],"min":[0.0022437500301748514,0],"type":"VEC2"},{"bufferView":3,"componentType":5123,"count":360,"max":[263],"min":[0],"type":"SCALAR"},{"bufferView":4,"componentType":5126,"count":60,"max":[0.0625,0.078125,0.0546875],"min":[-0.0625,0.046875,-0.0546875],"type":"VEC3"},{"bufferView":5,"componentType":5126,"count":60,"max":[0.8682431578636169,1,1],"min":[-0.8682431578636169,-1,-1],"type":"VEC3"},{"bufferView":6,"componentType":5126,"count":60,"max":[0.5773500204086304,0.5],"min":[0,0],"type":"VEC2"},{"bufferView":7,"componentType":5123,"count":72,"max":[59],"min":[0],"type":"SCALAR"},{"bufferView":8,"componentType":5126,"count":60,"max":[0.0390625,0.0703125,0.0390625],"min":[-0.0390625,0.0546875,-0.0390625],"type":"VEC3"},{"bufferView":9,"componentType":5126,"count":60,"max":[0.8944271802902222,1,1],"min":[-0.8944271802902222,-1,-1],"type":"VEC3"},{"bufferView":10,"componentType":5126,"count":60,"max":[0.5773500204086304,0.5],"min":[0,0],"type":"VEC2"},{"bufferView":11,"componentType":5123,"count":72,"max":[59],"min":[0],"type":"SCALAR"},{"bufferView":12,"componentType":5126,"count":60,"max":[0.0234375,0.0703125,0.0234375],"min":[-0.0234375,0.0546875,-0.0234375],"type":"VEC3"},{"bufferView":13,"componentType":5126,"count":60,"max":[0.8944271802902222,1,1],"min":[-0.8944271802902222,-1,-1],"type":"VEC3"},{"bufferView":14,"componentType":5126,"count":60,"max":[0.984375,0.109375],"min":[0.015625,0.015625],"type":"VEC2"},{"bufferView":15,"componentType":5123,"count":72,"max":[59],"min":[0],"type":"SCALAR"},{"bufferView":16,"componentType":5126,"count":60,"max":[0.015625,0.0703125,0.015625],"min":[-0.015625,0.0546875,-0.015625],"type":"VEC3"},{"bufferView":17,"componentType":5126,"count":60,"max":[0.8944271802902222,1,1],"min":[-0.8944271802902222,-1,-1],"type":"VEC3"},{"bufferView":18,"componentType":5126,"count":60,"max":[0.5773500204086304,0.5],"min":[0,0],"type":"VEC2"},{"bufferView":19,"componentType":5123,"count":72,"max":[59],"min":[0],"type":"SCALAR"},{"bufferView":20,"componentType":5126,"count":60,"max":[0.0390625,0.078125,0.0390625],"min":[-0.0390625,0.046875,-0.0390625],"type":"VEC3"},{"bufferView":21,"componentType":5126,"count":60,"max":[0.8944271802902222,1,1],"min":[-0.8944271802902222,-1,-1],"type":"VEC3"},{"bufferView":22,"componentType":5126,"count":60,"max":[0.5773500204086304,0.5],"min":[0,0],"type":"VEC2"},{"bufferView":23,"componentType":5123,"count":72,"max":[59],"min":[0],"type":"SCALAR"}],"materials":[{"pbrMetallicRoughness":{"metallicFactor":0,"roughnessFactor":1,"baseColorTexture":{"index":0}},"alphaMode":"MASK","alphaCutoff":0.05,"doubleSided":true},{"pbrMetallicRoughness":{"metallicFactor":0,"roughnessFactor":1,"baseColorTexture":{"index":1}},"alphaMode":"MASK","alphaCutoff":0.05,"doubleSided":true}],"textures":[{"sampler":0,"source":0,"name":"AsteroidBody"},{"sampler":1,"source":1,"name":"Graphene"}],"samplers":[{"magFilter":9728,"minFilter":9728,"wrapS":33071,"wrapT":33071},{"magFilter":9728,"minFilter":9728,"wrapS":33071,"wrapT":33071}],"images":[{"mimeType":"image/png","uri":"data:image/png;base64,"},{"mimeType":"image/png","uri":"data:image/png;base64,"}],"meshes":[{"primitives":[{"mode":4,"attributes":{"POSITION":0,"NORMAL":1,"TEXCOORD_0":2},"indices":3,"material":0}]},{"primitives":[{"mode":4,"attributes":{"POSITION":4,"NORMAL":5,"TEXCOORD_0":6},"indices":7,"material":1}]},{"primitives":[{"mode":4,"attributes":{"POSITION":8,"NORMAL":9,"TEXCOORD_0":10},"indices":11,"material":1}]},{"primitives":[{"mode":4,"attributes":{"POSITION":12,"NORMAL":13,"TEXCOORD_0":14},"indices":15,"material":1}]},{"primitives":[{"mode":4,"attributes":{"POSITION":16,"NORMAL":17,"TEXCOORD_0":18},"indices":19,"material":1}]},{"primitives":[{"mode":4,"attributes":{"POSITION":20,"NORMAL":21,"TEXCOORD_0":22},"indices":23,"material":1}]}]}